<?xml version="1.0" encoding="UTF-8"?>
<svg xmlns="http://www.w3.org/2000/svg" xmlns:xlink="http://www.w3.org/1999/xlink" width="64pt" height="64pt" viewBox="0 0 64 64" version="1.1">
<g id="surface1">
<path style=" stroke:none;fill-rule:nonzero;fill:rgb(100%,100%,100%);fill-opacity:1;" d="M 20.480469 17.089844 C 20.160156 15.9375 20.480469 15.742188 20.800781 15.808594 C 20.609375 15.230469 20.609375 14.59375 20.734375 14.078125 C 20.863281 13.441406 21.246094 12.929688 21.632812 12.480469 C 21.886719 12.222656 22.144531 11.96875 22.464844 11.777344 C 22.71875 11.585938 22.976562 11.457031 23.296875 11.390625 C 23.550781 11.328125 23.742188 11.265625 24 11.265625 C 24.769531 11.199219 25.40625 11.390625 25.855469 11.648438 C 26.496094 12.03125 26.753906 12.480469 26.753906 12.480469 C 26.753906 12.480469 28.414062 12.609375 27.648438 16 C 27.839844 16.0625 28.03125 16.382812 27.777344 17.28125 C 27.457031 18.367188 27.199219 18.433594 27.007812 18.304688 C 26.816406 19.519531 26.175781 21.054688 24.0625 21.121094 C 21.953125 20.929688 21.3125 19.390625 21.121094 18.175781 C 20.929688 18.175781 20.734375 17.921875 20.480469 17.089844 Z M 24.128906 27.519531 L 31.167969 27.519531 C 31.105469 24.574219 31.230469 23.039062 29.3125 22.335938 C 27.585938 21.695312 26.558594 20.992188 26.558594 20.992188 L 25.214844 25.214844 L 25.023438 25.792969 L 24.449219 24.128906 C 25.792969 22.207031 24.320312 22.144531 24.0625 22.144531 C 23.808594 22.144531 22.335938 22.207031 23.679688 24.128906 L 23.105469 25.792969 L 22.910156 25.214844 L 21.566406 20.992188 C 21.566406 20.992188 20.542969 21.695312 18.816406 22.335938 C 16.894531 23.039062 17.023438 24.574219 16.960938 27.519531 Z M 53.824219 18.753906 L 53.824219 52.671875 C 53.824219 56.449219 50.816406 59.457031 47.039062 59.457031 L 16.960938 59.457031 C 13.183594 59.457031 10.175781 56.449219 10.175781 52.671875 L 10.175781 11.328125 C 10.175781 7.550781 13.183594 4.542969 16.960938 4.542969 L 39.167969 4.542969 C 39.550781 4.542969 39.9375 4.609375 40.320312 4.734375 C 40.703125 4.863281 41.023438 5.121094 41.28125 5.375 L 52.863281 16.511719 C 53.183594 16.769531 53.375 17.152344 53.566406 17.535156 C 53.761719 17.921875 53.824219 18.367188 53.824219 18.753906 Z M 50.625 19.710938 L 44.929688 19.710938 C 41.214844 19.710938 38.144531 16.640625 38.144531 12.929688 L 38.144531 7.742188 L 16.960938 7.742188 C 14.976562 7.742188 13.375 9.34375 13.375 11.328125 L 13.375 52.671875 C 13.375 54.65625 14.976562 56.257812 16.960938 56.257812 L 47.039062 56.257812 C 49.023438 56.257812 50.625 54.65625 50.625 52.671875 Z M 17.089844 32 C 17.089844 32.894531 17.792969 33.601562 18.6875 33.601562 L 45.632812 33.601562 C 46.527344 33.601562 47.230469 32.894531 47.230469 32 C 47.230469 31.105469 46.527344 30.398438 45.632812 30.398438 L 18.6875 30.398438 C 17.792969 30.398438 17.089844 31.105469 17.089844 32 Z M 45.632812 36.800781 L 18.6875 36.800781 C 17.792969 36.800781 17.089844 37.503906 17.089844 38.398438 C 17.089844 39.296875 17.792969 40 18.6875 40 L 45.632812 40 C 46.527344 40 47.230469 39.296875 47.230469 38.398438 C 47.230469 37.503906 46.464844 36.800781 45.632812 36.800781 Z M 45.632812 43.199219 L 18.6875 43.199219 C 17.792969 43.199219 17.089844 43.902344 17.089844 44.800781 C 17.089844 45.695312 17.792969 46.398438 18.6875 46.398438 L 45.632812 46.398438 C 46.527344 46.398438 47.230469 45.695312 47.230469 44.800781 C 47.230469 43.902344 46.464844 43.199219 45.632812 43.199219 Z M 33.535156 49.601562 L 18.496094 49.601562 C 17.601562 49.601562 16.894531 50.304688 16.894531 51.199219 C 16.894531 52.097656 17.601562 52.800781 18.496094 52.800781 L 33.535156 52.800781 C 34.433594 52.800781 35.136719 52.097656 35.136719 51.199219 C 35.136719 50.304688 34.433594 49.601562 33.535156 49.601562 Z M 33.535156 49.601562 "/>
</g>
</svg>
