<?xml version="1.0" encoding="UTF-8"?>
<svg xmlns="http://www.w3.org/2000/svg" xmlns:xlink="http://www.w3.org/1999/xlink" width="64pt" height="64pt" viewBox="0 0 64 64" version="1.1">
<g id="surface1">
<path style=" stroke:none;fill-rule:nonzero;fill:rgb(100%,100%,100%);fill-opacity:1;" d="M 45.011719 50.027344 L 45.011719 37.652344 L 49.121094 37.652344 L 49.121094 54.132812 L 12.054688 54.132812 L 12.054688 37.652344 L 16.160156 37.652344 L 16.160156 50.027344 Z M 45.011719 50.027344 "/>
<path style=" stroke:none;fill-rule:nonzero;fill:rgb(100%,100%,100%);fill-opacity:1;" d="M 20.691406 36.480469 L 40.851562 40.691406 L 41.707031 36.640625 L 21.546875 32.425781 Z M 23.359375 26.878906 L 42.027344 35.574219 L 43.734375 31.839844 L 25.066406 23.09375 Z M 28.535156 17.707031 L 44.375 30.878906 L 46.988281 27.734375 L 31.148438 14.558594 Z M 38.773438 7.945312 L 35.464844 10.398438 L 47.734375 26.933594 L 51.039062 24.480469 Z M 20.265625 45.867188 L 40.851562 45.867188 L 40.851562 41.761719 L 20.265625 41.761719 Z M 20.265625 45.867188 "/>
</g>
</svg>
